<?xml version="1.0" encoding="UTF-8"?>
<svg width="800" height="600" viewBox="0 0 800 600" fill="none" xmlns="http://www.w3.org/2000/svg">
  <!-- Background gradient -->
  <defs>
    <linearGradient id="grad1" x1="0%" y1="0%" x2="100%" y2="100%">
      <stop offset="0%" style="stop-color:#FF9900;stop-opacity:0.1" />
      <stop offset="100%" style="stop-color:#FF9900;stop-opacity:0.05" />
    </linearGradient>
  </defs>
  
  <!-- Background -->
  <rect width="800" height="600" fill="url(#grad1)" rx="20"/>
  
  <!-- Team collaboration illustration -->
  <g transform="translate(100, 100)">
    <!-- Person 1 -->
    <circle cx="100" cy="100" r="50" fill="#1F2937" stroke="#FF9900" stroke-width="2"/>
    <circle cx="100" cy="80" r="20" fill="#FF9900" fill-opacity="0.2"/>
    <rect x="80" y="120" width="40" height="60" rx="20" fill="#FF9900" fill-opacity="0.2"/>
    
    <!-- Person 2 -->
    <circle cx="200" cy="100" r="50" fill="#1F2937" stroke="#FF9900" stroke-width="2"/>
    <circle cx="200" cy="80" r="20" fill="#FF9900" fill-opacity="0.2"/>
    <rect x="180" y="120" width="40" height="60" rx="20" fill="#FF9900" fill-opacity="0.2"/>
    
    <!-- Person 3 -->
    <circle cx="150" cy="200" r="50" fill="#1F2937" stroke="#FF9900" stroke-width="2"/>
    <circle cx="150" cy="180" r="20" fill="#FF9900" fill-opacity="0.2"/>
    <rect x="130" y="220" width="40" height="60" rx="20" fill="#FF9900" fill-opacity="0.2"/>
    
    <!-- Connecting lines -->
    <path d="M100 100 L200 100" stroke="#FF9900" stroke-width="2" stroke-dasharray="5,5"/>
    <path d="M150 150 L150 200" stroke="#FF9900" stroke-width="2" stroke-dasharray="5,5"/>
    <path d="M100 100 L150 150" stroke="#FF9900" stroke-width="2" stroke-dasharray="5,5"/>
    <path d="M200 100 L150 150" stroke="#FF9900" stroke-width="2" stroke-dasharray="5,5"/>
  </g>
  
  <!-- Code blocks -->
  <g transform="translate(400, 100)">
    <rect x="0" y="0" width="200" height="150" rx="10" fill="#1F2937" stroke="#FF9900" stroke-width="2"/>
    <rect x="20" y="20" width="160" height="20" rx="5" fill="#FF9900" fill-opacity="0.2"/>
    <rect x="20" y="50" width="120" height="20" rx="5" fill="#FF9900" fill-opacity="0.2"/>
    <rect x="20" y="80" width="140" height="20" rx="5" fill="#FF9900" fill-opacity="0.2"/>
  </g>
  
  <g transform="translate(400, 300)">
    <rect x="0" y="0" width="200" height="150" rx="10" fill="#1F2937" stroke="#FF9900" stroke-width="2"/>
    <rect x="20" y="20" width="160" height="20" rx="5" fill="#FF9900" fill-opacity="0.2"/>
    <rect x="20" y="50" width="120" height="20" rx="5" fill="#FF9900" fill-opacity="0.2"/>
    <rect x="20" y="80" width="140" height="20" rx="5" fill="#FF9900" fill-opacity="0.2"/>
  </g>
</svg> 