<?xml version="1.0" encoding="UTF-8"?>
<svg width="800" height="600" viewBox="0 0 800 600" fill="none" xmlns="http://www.w3.org/2000/svg">
  <!-- Background gradient -->
  <defs>
    <linearGradient id="grad1" x1="0%" y1="0%" x2="100%" y2="100%">
      <stop offset="0%" style="stop-color:#FF9900;stop-opacity:0.1" />
      <stop offset="100%" style="stop-color:#FF9900;stop-opacity:0.05" />
    </linearGradient>
  </defs>
  
  <!-- Background -->
  <rect width="800" height="600" fill="url(#grad1)" rx="20"/>
  
  <!-- Code blocks -->
  <g transform="translate(100, 100)">
    <rect x="0" y="0" width="200" height="150" rx="10" fill="#1F2937" stroke="#FF9900" stroke-width="2"/>
    <rect x="20" y="20" width="160" height="20" rx="5" fill="#FF9900" fill-opacity="0.2"/>
    <rect x="20" y="50" width="120" height="20" rx="5" fill="#FF9900" fill-opacity="0.2"/>
    <rect x="20" y="80" width="140" height="20" rx="5" fill="#FF9900" fill-opacity="0.2"/>
  </g>
  
  <g transform="translate(350, 200)">
    <rect x="0" y="0" width="200" height="150" rx="10" fill="#1F2937" stroke="#FF9900" stroke-width="2"/>
    <rect x="20" y="20" width="160" height="20" rx="5" fill="#FF9900" fill-opacity="0.2"/>
    <rect x="20" y="50" width="120" height="20" rx="5" fill="#FF9900" fill-opacity="0.2"/>
    <rect x="20" y="80" width="140" height="20" rx="5" fill="#FF9900" fill-opacity="0.2"/>
  </g>
  
  <g transform="translate(200, 300)">
    <rect x="0" y="0" width="200" height="150" rx="10" fill="#1F2937" stroke="#FF9900" stroke-width="2"/>
    <rect x="20" y="20" width="160" height="20" rx="5" fill="#FF9900" fill-opacity="0.2"/>
    <rect x="20" y="50" width="120" height="20" rx="5" fill="#FF9900" fill-opacity="0.2"/>
    <rect x="20" y="80" width="140" height="20" rx="5" fill="#FF9900" fill-opacity="0.2"/>
  </g>
  
  <!-- Connecting lines -->
  <path d="M300 250 L350 200" stroke="#FF9900" stroke-width="2" stroke-dasharray="5,5"/>
  <path d="M450 350 L400 300" stroke="#FF9900" stroke-width="2" stroke-dasharray="5,5"/>
  <path d="M200 250 L250 300" stroke="#FF9900" stroke-width="2" stroke-dasharray="5,5"/>
</svg> 